<?xml version="1.0" encoding="iso-8859-1"?>
<!-- Generator: Adobe Illustrator 19.0.0, SVG Export Plug-In . SVG Version: 6.00 Build 0)  -->
<svg version="1.1" id="Capa_1" xmlns="http://www.w3.org/2000/svg" xmlns:xlink="http://www.w3.org/1999/xlink" x="0px" y="0px"
	 viewBox="0 0 512 512" style="enable-background:new 0 0 512 512;" xml:space="preserve">
<g>
	<polygon style="fill:#69432E;" points="39.051,234.305 472.949,234.305 472.949,121.492 39.051,121.492 	"/>
	<path style="fill:#8A5B46;" d="M47.729,225.627h416.542v-95.458H47.729V225.627z M472.949,242.983H39.051
		c-4.79,0-8.678-3.888-8.678-8.678V121.492c0-4.79,3.888-8.678,8.678-8.678h433.898c4.79,0,8.678,3.888,8.678,8.678v112.814
		C481.627,239.095,477.739,242.983,472.949,242.983L472.949,242.983z"/>
	<polygon style="fill:#D1D4D1;" points="325.424,234.305 377.492,234.305 377.492,199.593 325.424,199.593 	"/>
	<path style="fill:#A5A5A4;" d="M394.847,208.271h-86.78c-4.79,0-8.678-3.888-8.678-8.678s3.888-8.678,8.678-8.678h86.78
		c4.79,0,8.678,3.888,8.678,8.678S399.638,208.271,394.847,208.271"/>
	<g>
		<path d="M394.847,338.441h8.678v-60.746h-8.678V338.441z M412.203,355.797h-26.034c-4.79,0-8.678-3.888-8.678-8.678v-78.102
			c0-4.79,3.888-8.678,8.678-8.678h26.034c4.79,0,8.678,3.888,8.678,8.678v78.102C420.881,351.909,416.994,355.797,412.203,355.797
			L412.203,355.797z"/>
		<path d="M368.814,338.441h8.678v-60.746h-8.678V338.441z M386.169,355.797h-26.034c-4.79,0-8.678-3.888-8.678-8.678v-78.102
			c0-4.79,3.888-8.678,8.678-8.678h26.034c4.79,0,8.678,3.888,8.678,8.678v78.102C394.847,351.909,390.96,355.797,386.169,355.797
			L386.169,355.797z"/>
		<path d="M342.78,338.441h8.678v-60.746h-8.678V338.441z M360.136,355.797h-26.034c-4.79,0-8.678-3.888-8.678-8.678v-78.102
			c0-4.79,3.888-8.678,8.678-8.678h26.034c4.79,0,8.678,3.888,8.678,8.678v78.102C368.814,351.909,364.926,355.797,360.136,355.797
			L360.136,355.797z"/>
		<path d="M316.746,338.441h8.678v-60.746h-8.678V338.441z M334.102,355.797h-26.034c-4.79,0-8.678-3.888-8.678-8.678v-78.102
			c0-4.79,3.888-8.678,8.678-8.678h26.034c4.79,0,8.678,3.888,8.678,8.678v78.102C342.78,351.909,338.892,355.797,334.102,355.797
			L334.102,355.797z"/>
		<path d="M251.165,338.441h7.498l19.525-52.068h-7.498L251.165,338.441z M264.677,355.797h-26.034
			c-2.846,0-5.511-1.397-7.133-3.732c-1.623-2.343-1.987-5.328-0.989-7.992l26.034-69.424c1.267-3.384,4.504-5.632,8.123-5.632
			h26.034c2.846,0,5.51,1.397,7.133,3.732c1.623,2.343,1.987,5.328,0.998,7.992l-26.034,69.424
			C271.533,353.549,268.296,355.797,264.677,355.797L264.677,355.797z"/>
	</g>
	<polygon style="fill:#69432E;" points="39.051,121.492 472.949,121.492 472.949,8.678 39.051,8.678 	"/>
	<path style="fill:#8A5B46;" d="M47.729,112.814h416.542V17.356H47.729V112.814z M472.949,130.169H39.051
		c-4.79,0-8.678-3.888-8.678-8.678V8.678c0-4.79,3.888-8.678,8.678-8.678h433.898c4.79,0,8.678,3.888,8.678,8.678v112.814
		C481.627,126.282,477.739,130.169,472.949,130.169L472.949,130.169z"/>
	<polygon style="fill:#E64C3C;" points="203.932,234.305 229.966,234.305 229.966,156.203 203.932,156.203 	"/>
	<polygon style="fill:#955BA5;" points="177.898,234.305 203.932,234.305 203.932,156.203 177.898,156.203 	"/>
	<polygon style="fill:#13A085;" points="151.864,234.305 177.898,234.305 177.898,156.203 151.864,156.203 	"/>
	<polygon style="fill:#25C3AB;" points="125.831,234.305 151.864,234.305 151.864,156.203 125.831,156.203 	"/>
	<polygon style="fill:#F0C419;" points="99.797,234.305 125.831,234.305 125.831,156.203 99.797,156.203 	"/>
	<polygon style="fill:#69432E;" points="39.051,347.119 472.949,347.119 472.949,234.305 39.051,234.305 	"/>
	<path style="fill:#8A5B46;" d="M47.729,338.441h416.542v-95.458H47.729V338.441z M472.949,355.797H39.051
		c-4.79,0-8.678-3.888-8.678-8.678V234.305c0-4.79,3.888-8.678,8.678-8.678h433.898c4.79,0,8.678,3.888,8.678,8.678v112.814
		C481.627,351.909,477.739,355.797,472.949,355.797L472.949,355.797z"/>
	<polygon style="fill:#E57E25;" points="108.475,347.119 186.576,347.119 186.576,321.085 108.475,321.085 	"/>
	<polygon style="fill:#88C057;" points="91.119,321.085 169.22,321.085 169.22,295.051 91.119,295.051 	"/>
	<polygon style="fill:#955BA5;" points="117.153,295.051 195.254,295.051 195.254,269.017 117.153,269.017 	"/>
	<polygon style="fill:#F0C419;" points="316.746,112.814 394.847,112.814 394.847,86.78 316.746,86.78 	"/>
	<polygon style="fill:#E64C3C;" points="299.39,86.78 377.492,86.78 377.492,60.746 299.39,60.746 	"/>
	<polygon style="fill:#955BA5;" points="325.424,60.746 403.525,60.746 403.525,34.712 325.424,34.712 	"/>
	<g>
		<polygon style="fill:#4F3022;" points="429.559,512 455.593,512 455.593,459.932 412.203,459.932 		"/>
		<polygon style="fill:#4F3022;" points="82.441,512 56.407,512 56.407,459.932 99.797,459.932 		"/>
	</g>
	<polygon style="fill:#69432E;" points="39.051,459.932 256,459.932 256,347.119 39.051,347.119 	"/>
	<path style="fill:#8A5B46;" d="M47.729,451.254h199.593v-95.458H47.729V451.254z M256,468.61H39.051
		c-4.79,0-8.678-3.888-8.678-8.678V347.119c0-4.79,3.888-8.678,8.678-8.678H256c4.79,0,8.678,3.888,8.678,8.678v112.814
		C264.678,464.722,260.79,468.61,256,468.61L256,468.61z"/>
	<polygon style="fill:#69432E;" points="256,459.932 472.949,459.932 472.949,347.119 256,347.119 	"/>
	<path style="fill:#8A5B46;" d="M264.678,451.254h199.593v-95.458H264.678V451.254z M472.949,468.61H256
		c-4.79,0-8.678-3.888-8.678-8.678V347.119c0-4.79,3.888-8.678,8.678-8.678h216.949c4.79,0,8.678,3.888,8.678,8.678v112.814
		C481.627,464.722,477.739,468.61,472.949,468.61L472.949,468.61z"/>
	<polygon style="fill:#BDC3C7;" points="99.797,112.814 203.932,112.814 203.932,43.39 99.797,43.39 	"/>
	<path style="fill:#ECF0F1;" d="M160.542,86.78h-17.356c-4.79,0-8.678-3.888-8.678-8.678s3.888-8.678,8.678-8.678h17.356
		c4.79,0,8.678,3.888,8.678,8.678S165.333,86.78,160.542,86.78"/>
	<g>
		<path style="fill:#F0C419;" d="M203.932,425.22c-4.79,0-8.678-3.888-8.678-8.678v-26.034c0-4.79,3.888-8.678,8.678-8.678
			s8.678,3.888,8.678,8.678v26.034C212.61,421.333,208.722,425.22,203.932,425.22"/>
		<path style="fill:#F0C419;" d="M203.932,399.186h-26.034c-4.79,0-8.678-3.888-8.678-8.678s3.888-8.678,8.678-8.678h26.034
			c4.79,0,8.678,3.888,8.678,8.678S208.722,399.186,203.932,399.186"/>
		<path style="fill:#F0C419;" d="M308.068,425.22c-4.79,0-8.678-3.888-8.678-8.678v-26.034c0-4.79,3.888-8.678,8.678-8.678
			c4.79,0,8.678,3.888,8.678,8.678v26.034C316.746,421.333,312.858,425.22,308.068,425.22"/>
		<path style="fill:#F0C419;" d="M334.102,399.186h-26.034c-4.79,0-8.678-3.888-8.678-8.678s3.888-8.678,8.678-8.678h26.034
			c4.79,0,8.678,3.888,8.678,8.678S338.892,399.186,334.102,399.186"/>
	</g>
</g>
<g>
</g>
<g>
</g>
<g>
</g>
<g>
</g>
<g>
</g>
<g>
</g>
<g>
</g>
<g>
</g>
<g>
</g>
<g>
</g>
<g>
</g>
<g>
</g>
<g>
</g>
<g>
</g>
<g>
</g>
</svg>
